<svg xmlns="http://www.w3.org/2000/svg" viewBox="0 0 32 32" role="img" aria-label="ECA">
  <defs>
    <linearGradient id="eca-bg" x1="0%" y1="0%" x2="100%" y2="100%">
      <stop offset="0%" stop-color="hsl(152, 45%, 24%)" />
      <stop offset="100%" stop-color="hsl(152, 45%, 16%)" />
    </linearGradient>
  </defs>
  <rect width="32" height="32" rx="8" fill="url(#eca-bg)" />
  <path
    fill="hsl(40, 33%, 97%)"
    d="M16 7.5c-1.2 1.4-2.4 3-3.2 4.8-.9 2-1.3 4-1.3 5.7 0 2.2 1.1 3.8 2.8 4.4.5.2 1 .3 1.7.3s1.2-.1 1.7-.3c1.7-.6 2.8-2.2 2.8-4.4 0-1.7-.4-3.7-1.3-5.7-.8-1.8-2-3.4-3.2-4.8z"
  />
  <path
    fill="hsl(36, 60%, 52%)"
    d="M16 9.2c.9 1.1 1.7 2.3 2.2 3.6.6 1.4.9 2.8.9 4.2 0 1.4-.6 2.4-1.6 2.8l-.4.1-.3-1.9c.5-.2.8-.7.8-1.4 0-.9-.2-1.9-.6-3-.4-1.1-1-2.1-1.7-3.1l-.1-.1z"
    opacity="0.95"
  />
</svg>
